<?xml version="1.0" standalone="no"?>
<!DOCTYPE svg PUBLIC "-//W3C//DTD SVG 20010904//EN"
 "http://www.w3.org/TR/2001/REC-SVG-20010904/DTD/svg10.dtd">
<svg version="1.0" xmlns="http://www.w3.org/2000/svg"
 width="677.000000pt" height="677.000000pt" viewBox="0 0 677.000000 677.000000"
 preserveAspectRatio="xMidYMid meet">
<metadata>
Created by potrace 1.16, written by Peter Selinger 2001-2019
</metadata>
<g transform="translate(0.000000,677.000000) scale(0.100000,-0.100000)"
fill="#000000" stroke="none">
<path d="M4875 5900 c4 -14 14 -41 22 -60 57 -140 103 -447 103 -695 0 -187
-11 -282 -47 -410 -40 -144 -102 -252 -207 -363 -224 -234 -366 -292 -551
-224 -90 32 -146 65 -205 119 -22 19 -40 31 -40 27 0 -5 -11 -81 -25 -169 -98
-625 -320 -1091 -661 -1387 -43 -37 -87 -68 -96 -68 -36 0 -219 178 -327 318
-18 24 -36 40 -40 37 -3 -4 1 -12 10 -18 9 -7 19 -21 22 -32 4 -11 17 -31 30
-45 12 -14 37 -45 54 -70 50 -73 238 -257 298 -292 7 -4 22 1 35 12 13 11 26
20 31 20 11 0 213 203 239 241 13 19 35 48 49 65 14 17 33 41 41 54 8 12 27
40 43 61 15 21 27 45 27 53 0 7 6 19 14 25 8 7 18 26 21 42 4 16 10 29 15 29
5 0 11 13 15 29 3 16 12 35 20 41 8 6 17 25 20 41 4 16 11 29 16 29 5 0 9 5 9
12 0 17 71 241 80 253 4 6 11 28 15 50 4 22 10 44 13 50 18 28 68 296 78 416
3 49 10 91 13 94 4 2 23 -12 43 -31 43 -40 150 -98 221 -119 28 -8 78 -15 110
-15 61 0 167 27 167 42 0 4 6 8 14 8 7 0 30 14 51 30 21 17 43 30 50 30 6 0
28 17 48 38 20 20 49 49 64 63 15 15 37 39 48 55 11 15 35 44 53 63 18 20 43
56 55 81 12 25 28 49 34 53 7 4 13 13 13 18 0 6 9 29 19 52 10 23 24 69 30
102 7 33 17 83 22 110 13 63 6 557 -9 680 -11 83 -17 114 -53 245 -6 25 -17
50 -23 55 -6 6 -17 28 -25 49 -16 47 -77 144 -66 106z"/>
<path d="M2166 5785 c-179 -46 -289 -164 -341 -368 -51 -201 -54 -421 -10
-591 19 -71 90 -226 103 -226 12 0 3 42 -10 51 -4 3 -14 32 -20 65 -7 32 -17
62 -23 66 -14 10 -14 426 1 436 6 4 14 33 18 65 10 89 65 220 116 276 37 40
120 89 178 104 26 6 50 16 54 22 10 14 261 13 279 -1 8 -6 32 -17 53 -24 22
-7 49 -21 60 -31 11 -11 24 -19 30 -19 6 0 39 -30 75 -67 l64 -68 -24 45 c-40
75 -174 202 -253 240 -63 31 -77 34 -180 37 -74 2 -131 -2 -170 -12z"/>
<path d="M3885 5781 c-103 -37 -165 -82 -245 -176 -49 -58 -110 -169 -110
-200 0 -8 -4 -23 -9 -33 -8 -15 -31 -163 -31 -199 0 -27 29 -12 35 18 7 31
100 219 113 229 4 3 19 23 33 45 61 94 168 182 244 201 17 4 33 12 37 18 10
15 266 15 276 0 4 -6 25 -14 46 -18 47 -9 130 -52 160 -83 29 -31 39 -28 21 6
-44 87 -174 175 -293 200 -82 17 -219 13 -277 -8z"/>
<path d="M2795 5715 c47 -109 115 -379 115 -457 0 -15 4 -29 9 -33 5 -3 12
-19 16 -35 7 -32 35 -42 35 -12 0 40 -24 188 -31 197 -5 5 -9 20 -9 35 -1 14
-9 43 -20 65 -11 22 -20 47 -20 55 -1 39 -66 179 -97 210 -12 12 -12 8 2 -25z"/>
<path d="M3695 4392 c0 -96 -3 -113 -28 -167 -41 -87 -74 -131 -125 -165 -52
-35 -122 -41 -160 -14 -13 9 -26 14 -29 11 -6 -7 27 -61 64 -102 23 -27 32
-30 87 -30 35 0 68 5 76 13 45 38 64 52 72 52 4 0 8 5 8 11 0 6 11 25 24 42
13 18 27 42 31 55 3 12 10 22 14 22 15 0 34 138 29 217 -4 77 -30 152 -54 160
-5 2 -9 -43 -9 -105z"/>
<path d="M1520 4446 c0 -17 35 -73 64 -101 17 -17 54 -56 81 -86 28 -30 68
-67 88 -84 21 -16 55 -45 75 -63 20 -18 47 -35 60 -38 12 -4 22 -10 22 -14 0
-13 114 -40 170 -40 49 0 168 26 180 39 3 3 26 17 53 30 96 49 108 70 91 173
l-7 38 -38 -35 c-92 -83 -239 -145 -344 -145 -116 1 -242 75 -402 238 -51 52
-93 92 -93 88z"/>
<path d="M3046 4373 c40 -169 -17 -326 -123 -340 -56 -7 -83 1 -137 42 -30 23
-43 28 -39 17 15 -43 105 -142 129 -142 9 0 13 -4 10 -9 -8 -13 65 -24 105
-16 54 11 116 92 125 163 12 98 -1 211 -30 262 -14 25 -29 53 -32 63 -4 9 -10
17 -14 17 -4 0 -1 -26 6 -57z"/>
<path d="M2513 4402 c-34 -55 89 -557 182 -742 37 -74 61 -91 32 -23 -9 21
-26 70 -37 108 -12 39 -25 77 -30 85 -4 9 -11 36 -15 60 -4 25 -11 50 -15 55
-5 6 -14 47 -21 93 -8 45 -16 82 -20 82 -4 0 -13 68 -20 150 -10 124 -15 150
-28 150 -9 0 -21 -8 -28 -18z"/>
<path d="M4315 3515 c-66 -29 -111 -107 -125 -217 -27 -221 11 -773 75 -1078
62 -294 -9 -488 -221 -600 l-69 -37 -6 -65 c-3 -40 -13 -78 -26 -99 -45 -71
-138 -95 -201 -50 -18 13 -35 21 -38 19 -7 -8 38 -86 64 -110 21 -20 34 -23
109 -23 91 0 83 -4 142 70 4 6 9 42 10 80 1 38 4 72 7 76 5 9 64 39 76 39 13
0 68 40 104 76 52 52 81 96 106 159 20 53 23 76 22 202 0 87 -4 146 -11 155
-6 7 -16 60 -22 118 -6 58 -16 139 -21 180 -5 41 -9 99 -10 128 0 28 -4 52 -8
52 -5 0 -12 48 -15 107 -3 61 -11 109 -17 111 -13 5 -13 69 1 78 7 4 10 65 9
183 -2 223 -3 221 14 221 8 0 24 21 37 48 18 34 35 52 64 66 22 11 49 24 60
29 13 7 20 6 23 -2 2 -6 19 -11 38 -11 46 0 142 -34 170 -61 12 -11 30 -19 40
-17 11 2 20 -5 23 -19 3 -12 17 -34 31 -50 14 -15 30 -36 37 -48 21 -34 14 3
-8 48 -37 72 -123 165 -184 197 -109 57 -214 74 -280 45z"/>
<path d="M2498 3451 c-10 -10 -18 -20 -18 -23 0 -3 -18 -37 -40 -74 -22 -38
-49 -97 -60 -131 -70 -227 -147 -877 -122 -1045 6 -42 22 -99 36 -127 30 -58
51 -77 39 -34 -11 40 -6 423 7 518 6 44 15 116 20 160 6 44 15 89 20 100 5 11
12 50 15 88 4 37 10 65 14 62 5 -2 11 34 14 80 2 47 9 91 15 98 5 6 13 33 16
59 4 26 11 50 15 53 5 2 12 25 15 50 4 24 11 47 16 50 4 3 11 23 15 45 4 22
14 47 23 56 13 13 13 17 1 25 -18 12 -21 11 -41 -10z"/>
<path d="M4950 3297 c0 -20 6 -42 14 -50 20 -19 36 -115 36 -206 0 -82 -16
-199 -29 -216 -5 -5 -11 -30 -13 -55 -8 -72 -65 -206 -104 -244 -19 -18 -34
-40 -34 -48 0 -20 -46 -62 -97 -87 -51 -26 -146 -29 -169 -6 -9 9 -25 13 -38
9 -29 -7 -81 14 -123 50 -34 29 -42 22 -20 -17 18 -32 93 -104 127 -121 47
-23 90 -30 90 -14 1 8 5 7 15 -5 22 -29 77 -37 137 -20 29 9 57 21 64 28 6 6
27 24 45 39 21 18 34 38 35 55 0 18 7 27 22 29 14 2 26 15 34 38 6 19 17 34
23 34 18 0 78 190 65 205 -8 10 -5 22 10 47 18 30 20 50 20 195 0 161 -8 207
-37 226 -10 6 -10 13 -2 29 9 17 6 31 -18 76 -34 68 -53 78 -53 29z"/>
<path d="M4399 2852 c-30 -32 -39 -61 -39 -132 0 -71 27 -150 50 -150 6 0 10
31 10 69 0 39 4 72 9 75 4 3 11 19 14 36 6 28 9 30 52 30 65 0 60 23 -17 73
-34 21 -58 21 -79 -1z"/>
<path d="M2472 1980 c-6 -11 -12 -44 -12 -74 0 -51 -13 -82 -22 -54 -2 6 -10
8 -16 4 -15 -9 -16 -123 -2 -197 11 -55 39 -120 56 -126 5 -2 9 70 9 176 0
135 4 182 14 195 7 9 11 25 8 36 -3 11 -1 20 4 20 5 0 9 9 9 20 0 26 -31 26
-48 0z"/>
<path d="M3563 1510 c-63 -13 -329 -30 -461 -30 -64 0 -180 5 -257 11 l-140
10 -20 -27 c-82 -114 -142 -148 -210 -120 -31 13 -40 14 -47 4 -12 -20 -10
-25 30 -68 39 -40 39 -40 113 -40 69 0 77 2 107 30 18 16 42 51 54 76 20 45
21 46 56 40 139 -24 859 -12 887 15 13 13 -34 103 -55 105 -8 1 -34 -2 -57 -6z"/>
</g>
</svg>
